<?xml version="1.0" encoding="UTF-8"?><svg id="Layer_1" xmlns="http://www.w3.org/2000/svg" viewBox="0 0 512.58 512"><path d="M306.38,476.31c0-19.71-15.98-35.69-35.69-35.69H94.44c-12.72,0-23.07-10.34-23.07-23.06V121.85s186.58,186.58,186.58,186.58h-90.08c-19.71,0-35.69,15.98-35.69,35.69,0,19.71,15.98,35.69,35.69,35.69h176.24c2.35,0,4.69-.24,7-.7,1.03-.21,1.98-.59,2.98-.88,1.24-.36,2.48-.65,3.69-1.14,1.15-.48,2.2-1.14,3.29-1.73.95-.52,1.94-.94,2.86-1.55,1.82-1.22,3.5-2.61,5.06-4.13.12-.12.26-.19.38-.31.15-.15.24-.33.39-.48,1.48-1.53,2.85-3.17,4.04-4.94.68-1.02,1.17-2.13,1.74-3.2.52-.98,1.12-1.9,1.54-2.93.57-1.36.91-2.77,1.3-4.18.23-.83.56-1.62.73-2.48.47-2.34.71-4.72.71-7.1v-176.18c0-19.71-15.98-35.69-35.69-35.69-19.71,0-35.69,15.98-35.69,35.69v90.09S121.86,71.38,121.86,71.38h295.7c12.71,0,23.06,10.34,23.06,23.06v176.25c0,19.71,15.98,35.69,35.69,35.69,19.71,0,35.69-15.98,35.69-35.69V94.44C512,42.36,469.64,0,417.56,0H94.44C42.36,0,0,42.36,0,94.44v323.12c0,52.07,42.36,94.44,94.44,94.44h176.25c19.71,0,35.69-15.98,35.69-35.69Z" style="fill:#240045;"/><path d="M420.13,447.98c0,25.53,20.7,46.22,46.22,46.22,25.53,0,46.22-20.69,46.22-46.22,0-25.53-20.69-46.22-46.22-46.22-25.53,0-46.22,20.69-46.22,46.22Z" style="fill:#240045;"/></svg>